<svg width="64" height="64" viewBox="0 0 64 64" fill="none" xmlns="http://www.w3.org/2000/svg">
  <defs>
    <linearGradient id="g" x1="0" y1="0" x2="1" y2="1">
      <stop offset="0%" stop-color="#F7A64A"/>
      <stop offset="100%" stop-color="#D96B28"/>
    </linearGradient>
  </defs>
  <path d="M48 20H14c-2.21 0-4 1.79-4 4v10c0 8.84 7.16 16 16 16h10c8.84 0 16-7.16 16-16V24c0-2.21-1.79-4-4-4z" fill="url(#g)"/>
  <path d="M38 48H24c-6.63 0-12-5.37-12-12v-2h38v2c0 6.63-5.37 12-12 12z" fill="#FFF" opacity="0.7"/>
  <path d="M46 18c0 1.1-.9 2-2 2s-2-.9-2-2 0-4 0-4 2 0 2 0 2 2.9 2 4z" fill="#fff" opacity="0.6"/>
  <path d="M42 16c0 1.1-.9 2-2 2s-2-.9-2-2 0-4 0-4 2 0 2 0 2 2.9 2 4z" fill="#fff" opacity="0.6"/>
</svg>
